<?xml version="1.0" encoding="iso-8859-1"?>
<!-- Generator: Adobe Illustrator 19.0.0, SVG Export Plug-In . SVG Version: 6.00 Build 0)  -->
<svg version="1.1" id="Layer_1" xmlns="http://www.w3.org/2000/svg" xmlns:xlink="http://www.w3.org/1999/xlink" x="0px" y="0px"
	 viewBox="0 0 512 512" style="enable-background:new 0 0 512 512;" xml:space="preserve">
<polygon style="fill:#FD9A0C;" points="167.092,508.111 30.877,393.812 0,218.699 88.908,64.705 256.001,3.889 423.092,64.705 
	512,218.699 481.123,393.812 344.908,508.111 "/>
<polygon style="fill:#FFC066;" points="404.142,87.291 256.001,33.371 107.859,87.291 29.034,223.817 56.41,379.071 
	177.176,480.406 334.823,480.406 455.59,379.071 482.966,223.817 "/>
<g>
	<path style="fill:#CA7B0A;" d="M368.945,255.527H339.87v16.623h29.075c4.591,0,8.311-3.721,8.311-8.311
		C377.256,259.248,373.536,255.527,368.945,255.527z"/>
	<path style="fill:#CA7B0A;" d="M347.301,320.067c-5.167-3.302-10.557-5.686-15.847-7.164v-98.13
		c5.29-1.477,10.68-3.862,15.847-7.164c14.442-9.227,23.109-23.031,23.271-34.992c-10.921-4.88-27.089-2.816-41.531,6.411
		c-8.162,5.214-14.478,11.891-18.458,18.869v131.88c3.981,6.979,10.297,13.655,18.458,18.87
		c14.442,9.227,30.609,11.291,41.531,6.411C370.41,343.098,361.743,329.294,347.301,320.067z"/>
	<path style="fill:#CA7B0A;" d="M233.907,341.215V186.462c1.301-2.203,2.513-4.513,3.624-6.921
		c8.878-19.266,8.68-39.441,0.854-52.009c-14.64,2.216-30.105,15.173-38.982,34.439c-7.131,15.475-8.408,31.537-4.578,43.771
		v116.192c-3.83,12.235-2.553,28.296,4.578,43.771c8.878,19.266,24.342,32.224,38.982,34.439
		c7.826-12.569,8.023-32.743-0.854-52.009C236.42,345.726,235.208,343.417,233.907,341.215z"/>
	<path style="fill:#CA7B0A;" d="M182.191,236.797h-46.969c-14.934,0-27.041,12.107-27.041,27.041
		c0,14.934,12.107,27.041,27.041,27.041h47.01L182.191,236.797z"/>
</g>
<path style="fill:#FD9A0C;" d="M350.952,263.838c0,21.905-10.039,42.308-28.269,57.449c-17.325,14.391-40.171,22.317-64.329,22.317
	s-47.003-7.926-64.329-22.317c-18.228-15.142-28.269-35.544-28.269-57.449s10.039-42.308,28.269-57.449
	c17.325-14.391,40.172-22.317,64.329-22.317s47.003,7.926,64.329,22.317C340.913,221.53,350.952,241.933,350.952,263.838z"/>
<path style="fill:#CA7B0A;" d="M312.59,285.548l-20.883-12.056v-19.319l20.883-12.056c3.975-2.295,5.337-7.378,3.042-11.353
	c-2.294-3.976-7.379-5.337-11.353-3.042l-20.883,12.056l-16.73-9.659v-16.944c0-4.59-3.72-8.311-8.311-8.311
	c-4.59,0-8.311,3.721-8.311,8.311v16.944l-16.73,9.659l-20.881-12.056c-3.976-2.295-9.058-0.933-11.353,3.042
	c-2.295,3.975-0.933,9.058,3.042,11.353l20.881,12.056v19.319l-20.881,12.056c-3.975,2.295-5.337,7.378-3.042,11.353
	c1.539,2.666,4.333,4.157,7.205,4.157c1.41,0,2.839-0.359,4.148-1.115l20.881-12.056l16.73,9.659v16.9
	c0,4.59,3.721,8.311,8.311,8.311c4.591,0,8.311-3.721,8.311-8.311v-16.9l16.73-9.659l20.883,12.056
	c1.31,0.756,2.738,1.115,4.148,1.115c2.872,0,5.666-1.492,7.205-4.157C317.927,292.926,316.565,287.842,312.59,285.548z
	 M258.355,283.151l-16.73-9.659v-19.319l16.73-9.659l16.73,9.659v19.319L258.355,283.151z"/>
<g>
	<path style="fill:#FD9A0C;" d="M255.999,453.891c-40.242,0-78.7-12.422-111.214-35.922c-3.72-2.688-4.557-7.885-1.868-11.605
		c2.688-3.721,7.884-4.557,11.605-1.868c29.664,21.439,64.753,32.771,101.477,32.771c36.725,0,71.814-11.331,101.474-32.769
		c3.718-2.688,8.916-1.853,11.605,1.868c2.69,3.72,1.853,8.915-1.867,11.605C334.698,441.47,296.242,453.891,255.999,453.891z"/>
	<path style="fill:#FD9A0C;" d="M113.956,158.758c-1.82,0-3.651-0.595-5.184-1.82c-3.585-2.866-4.169-8.096-1.302-11.682
		c36.308-45.421,90.445-71.472,148.529-71.472c58.083,0,112.22,26.049,148.528,71.469c2.866,3.585,2.284,8.816-1.302,11.682
		c-3.586,2.866-8.816,2.284-11.682-1.302c-33.137-41.451-82.541-65.225-135.545-65.225c-53.005,0-102.409,23.775-135.545,65.229
		C118.812,157.689,116.395,158.758,113.956,158.758z"/>
</g>
<g>
</g>
<g>
</g>
<g>
</g>
<g>
</g>
<g>
</g>
<g>
</g>
<g>
</g>
<g>
</g>
<g>
</g>
<g>
</g>
<g>
</g>
<g>
</g>
<g>
</g>
<g>
</g>
<g>
</g>
</svg>
